<svg width="24" height="24" viewBox="0 0 24 24" fill="none" xmlns="http://www.w3.org/2000/svg">
<path fill-rule="evenodd" clip-rule="evenodd" d="M16 16H19.003V4H12.306L15.555 6.166C15.5698 6.17585 15.581 6.189 15.5922 6.20217C15.6014 6.21305 15.6107 6.22395 15.622 6.233C15.676 6.277 15.722 6.324 15.765 6.377C15.806 6.427 15.841 6.477 15.871 6.533C15.9 6.588 15.922 6.644 15.941 6.704C15.961 6.771 15.975 6.836 15.982 6.906C15.9829 6.9209 15.9869 6.93471 15.9909 6.94855C15.9954 6.96444 16 6.98036 16 6.998V16ZM5 7.998V19.998H14V17.102C13.9983 17.087 13.9943 17.0726 13.9904 17.0584C13.9852 17.0394 13.98 17.0205 13.98 17C13.98 16.9795 13.9852 16.9606 13.9904 16.9416C13.9943 16.9274 13.9983 16.913 14 16.898V7.998H5ZM11.697 5.998L10.003 4.869V5.998H11.697ZM9.003 2H20.003C20.556 2 21.003 2.448 21.003 3V17C21.003 17.552 20.556 18 20.003 18H16V20.998C16 21.55 15.553 21.998 15 21.998H4C3.447 21.998 3 21.55 3 20.998V6.998C3 6.446 3.447 5.998 4 5.998H8.003V3C8.003 2.98634 8.00658 2.97417 8.01016 2.96203L8.01016 2.96202C8.01313 2.95194 8.01609 2.94188 8.017 2.931C8.023 2.849 8.039 2.771 8.065 2.691C8.082 2.64 8.1 2.594 8.124 2.548C8.13184 2.53276 8.13683 2.51715 8.14179 2.50164L8.14179 2.50164C8.14821 2.48154 8.15458 2.46163 8.167 2.443C8.18039 2.42262 8.19785 2.40767 8.21543 2.39261C8.22805 2.38181 8.24072 2.37095 8.252 2.358C8.286 2.318 8.321 2.283 8.362 2.248C8.422 2.197 8.484 2.154 8.555 2.118C8.598 2.096 8.641 2.079 8.687 2.064C8.765 2.038 8.842 2.022 8.924 2.016C8.93703 2.01507 8.94898 2.01154 8.96086 2.00803C8.97449 2.004 8.98803 2 9.003 2ZM11.9913 11.9976H6.9913C6.4383 11.9976 5.9913 11.5496 5.9913 10.9976C5.9913 10.4456 6.4383 9.9976 6.9913 9.9976H11.9913C12.5443 9.9976 12.9913 10.4456 12.9913 10.9976C12.9913 11.5496 12.5443 11.9976 11.9913 11.9976ZM11.9991 12.9971H6.9991C6.4461 12.9971 5.9991 13.4451 5.9991 13.9971C5.9991 14.5491 6.4461 14.9971 6.9991 14.9971H11.9991C12.5521 14.9971 12.9991 14.5491 12.9991 13.9971C12.9991 13.4451 12.5521 12.9971 11.9991 12.9971ZM6.9991 15.9986H11.9991C12.5521 15.9986 12.9991 16.4466 12.9991 16.9986C12.9991 17.5506 12.5521 17.9986 11.9991 17.9986H6.9991C6.4461 17.9986 5.9991 17.5506 5.9991 16.9986C5.9991 16.4466 6.4461 15.9986 6.9991 15.9986Z" fill="white"/>
</svg>
