<svg width="52" height="52" viewBox="0 0 52 52" fill="none" xmlns="http://www.w3.org/2000/svg">
<path fill-rule="evenodd" clip-rule="evenodd" d="M4.00098 25.9998C4.00098 13.8698 13.871 3.99976 26.001 3.99976C38.131 3.99976 48.001 13.8698 48.001 25.9998C48.001 38.1318 38.131 47.9998 26.001 47.9998C13.871 47.9998 4.00098 38.1318 4.00098 25.9998ZM0.000976562 25.9998C0.000976562 40.3358 11.665 51.9998 26.001 51.9998C40.337 51.9998 52.001 40.3358 52.001 25.9998C52.001 11.6638 40.337 -0.000244141 26.001 -0.000244141C11.665 -0.000244141 0.000976562 11.6638 0.000976562 25.9998ZM25.999 30.6668C24.893 30.6668 23.999 29.7708 23.999 28.6668V15.3328C23.999 14.2288 24.893 13.3328 25.999 13.3328C27.105 13.3328 27.999 14.2288 27.999 15.3328V28.6668C27.999 29.7708 27.105 30.6668 25.999 30.6668ZM26.0048 38.6698C25.4648 38.6698 24.9648 38.4498 24.5848 38.0698C24.2068 37.7098 24.0048 37.1898 24.0048 36.6698C24.0048 36.1498 24.2068 35.6298 24.5848 35.2498C25.1448 34.6898 26.0248 34.5098 26.7648 34.8098C27.0048 34.9298 27.2248 35.0698 27.4048 35.2498C27.7868 35.6298 28.0048 36.1498 28.0048 36.6698C28.0048 37.1898 27.7868 37.7098 27.4048 38.0698C27.0468 38.4498 26.5248 38.6698 26.0048 38.6698Z" fill="#2196F3"/>
</svg>
