<svg width="20" height="20" viewBox="0 0 20 20" fill="none" xmlns="http://www.w3.org/2000/svg">
<path fill-rule="evenodd" clip-rule="evenodd" d="M10 5.00012C10.553 5.00012 11 5.44712 11 6.00012V11.0001C11 11.5531 10.553 12.0001 10 12.0001C9.447 12.0001 9 11.5531 9 11.0001V6.00012C9 5.44712 9.447 5.00012 10 5.00012ZM9.9971 13.0049C10.1371 13.0049 10.2671 13.0259 10.3871 13.0749C10.5071 13.1249 10.6171 13.1949 10.7071 13.2949C10.7971 13.3849 10.8771 13.4949 10.9271 13.6149C10.9761 13.7349 10.9971 13.8649 10.9971 14.0049C10.9971 14.2659 10.8961 14.5259 10.7071 14.7049C10.6571 14.7549 10.6071 14.7949 10.5571 14.8349C10.4971 14.8649 10.4471 14.8959 10.3871 14.9249C10.3271 14.9449 10.2571 14.9649 10.1971 14.9759C10.0671 15.0049 9.9361 15.0049 9.8071 14.9759C9.7371 14.9649 9.6771 14.9449 9.6171 14.9249C9.5571 14.8959 9.4971 14.8649 9.4471 14.8349C9.3871 14.7949 9.3371 14.7549 9.2971 14.7049C9.1971 14.6149 9.1271 14.5049 9.0771 14.3849C9.0571 14.3249 9.0371 14.2549 9.0171 14.1949C9.0071 14.1349 8.9971 14.0659 8.9971 14.0049C8.9971 13.8649 9.0271 13.7349 9.0771 13.6149C9.1271 13.4949 9.1971 13.3849 9.2971 13.2949C9.4761 13.1059 9.7261 13.0049 9.9971 13.0049ZM10 18.0001C14.411 18.0001 18 14.4111 18 10.0001C18 5.58912 14.411 2.00012 10 2.00012C5.589 2.00012 2 5.58912 2 10.0001C2 14.4111 5.589 18.0001 10 18.0001ZM10 0.00012207C15.514 0.00012207 20 4.48612 20 10.0001C20 15.5141 15.514 20.0001 10 20.0001C4.486 20.0001 0 15.5141 0 10.0001C0 4.48612 4.486 0.00012207 10 0.00012207Z" fill="#F44336"/>
</svg>
