<svg width="24" height="24" viewBox="0 0 24 24" fill="none" xmlns="http://www.w3.org/2000/svg">
<path fill-rule="evenodd" clip-rule="evenodd" d="M10.9985 5.00325L10.9985 16.5873L6.7065 12.2962C6.3165 11.9052 5.6835 11.9052 5.2925 12.2962C4.9025 12.6872 4.9025 13.3192 5.2925 13.7102L11.2905 19.7083C11.3835 19.8003 11.4945 19.8743 11.6165 19.9243C11.8605 20.0253 12.1365 20.0253 12.3805 19.9243C12.5025 19.8743 12.6135 19.8003 12.7065 19.7083L18.7045 13.7103C18.8995 13.5153 18.9975 13.2593 18.9975 13.0033C18.9975 12.7473 18.8995 12.4913 18.7045 12.2963C18.3135 11.9053 17.6805 11.9053 17.2905 12.2963L12.9985 16.5873L12.9985 5.00325C12.9985 4.45125 12.5505 4.00325 11.9985 4.00325C11.4465 4.00325 10.9985 4.45125 10.9985 5.00325" fill="#F44336"/>
</svg>
