<svg width="24" height="24" viewBox="0 0 24 24" fill="none" xmlns="http://www.w3.org/2000/svg">
<path fill-rule="evenodd" clip-rule="evenodd" d="M18.9967 10.9985H7.41275L11.7038 6.7065C12.0948 6.3165 12.0948 5.6835 11.7038 5.2925C11.3128 4.9025 10.6807 4.9025 10.2898 5.2925L4.29175 11.2905C4.19975 11.3835 4.12575 11.4945 4.07575 11.6165C3.97475 11.8605 3.97475 12.1365 4.07575 12.3805C4.12575 12.5025 4.19975 12.6135 4.29175 12.7065L10.2898 18.7045C10.4848 18.8995 10.7407 18.9975 10.9967 18.9975C11.2527 18.9975 11.5087 18.8995 11.7038 18.7045C12.0948 18.3135 12.0948 17.6805 11.7038 17.2905L7.41275 12.9985H18.9967C19.5487 12.9985 19.9967 12.5505 19.9967 11.9985C19.9967 11.4465 19.5487 10.9985 18.9967 10.9985Z" fill="#0A0A0A"/>
</svg>
