<svg width="24" height="24" viewBox="0 0 24 24" fill="none" xmlns="http://www.w3.org/2000/svg">
<path fill-rule="evenodd" clip-rule="evenodd" d="M13.0015 18.9967L13.0015 7.41275L17.2935 11.7038C17.6835 12.0948 18.3165 12.0948 18.7075 11.7038C19.0975 11.3128 19.0975 10.6807 18.7075 10.2898L12.7095 4.29175C12.6165 4.19975 12.5055 4.12575 12.3835 4.07575C12.1395 3.97475 11.8635 3.97475 11.6195 4.07575C11.4975 4.12575 11.3865 4.19975 11.2935 4.29175L5.2955 10.2897C5.1005 10.4847 5.0025 10.7407 5.0025 10.9967C5.0025 11.2527 5.1005 11.5087 5.2955 11.7037C5.6865 12.0947 6.3195 12.0947 6.7095 11.7037L11.0015 7.41275L11.0015 18.9967C11.0015 19.5487 11.4495 19.9967 12.0015 19.9967C12.5535 19.9967 13.0015 19.5487 13.0015 18.9967Z" fill="#4CAF50"/>
</svg>
