<svg width="16" height="20" viewBox="0 0 16 20" fill="none" xmlns="http://www.w3.org/2000/svg">
<path fill-rule="evenodd" clip-rule="evenodd" d="M14.0087 16.0086H1.99129V14.448L2.87642 14.0074C3.56839 13.6617 3.99751 12.9663 3.99751 12.192V8.02977C3.99751 5.80777 5.79963 3.9994 8.01394 3.9994C10.2283 3.9994 12.0304 5.80777 12.0304 8.02977V12.197C12.0304 12.9663 12.4555 13.6587 13.1405 14.0064H13.1415L14.0087 14.444V16.0086ZM15.4514 12.9354L14.0217 12.197V8.02977C14.0217 5.52403 12.4894 3.37296 10.3169 2.46378C10.3189 2.42082 10.3298 2.37986 10.3298 2.3369C10.3298 1.04806 9.28438 0 8 0C6.71562 0 5.67119 1.04806 5.67119 2.3369C5.67119 2.38286 5.68612 2.42682 5.68911 2.47178C3.52757 3.38595 2.00622 5.53302 2.00622 8.02977L1.99129 12.217L0.552582 12.9334C0.214063 13.1022 0 13.4489 0 13.8286V17.0077C0 17.5592 0.445053 18.0068 0.995644 18.0068H6.00971C6.0117 19.1078 6.9018 20 8 20C9.0972 20 9.9883 19.1078 9.99129 18.0068H15.0044C15.5549 18.0068 16 17.5592 16 17.0077V13.8286C16 13.4509 15.7879 13.1052 15.4514 12.9354Z" fill="#0A0A0A"/>
</svg>
