<svg width="32" height="32" viewBox="0 0 32 32" fill="none" xmlns="http://www.w3.org/2000/svg">
<path fill-rule="evenodd" clip-rule="evenodd" d="M26 14.6665C26 15.2195 25.553 15.6665 25 15.6665C24.448 15.6665 24 15.2195 24 14.6665V11.6665H21C20.448 11.6665 20 11.2195 20 10.6665C20 10.1145 20.448 9.6665 21 9.6665H24V6.6665C24 6.1145 24.448 5.6665 25 5.6665C25.553 5.6665 26 6.1145 26 6.6665V9.6665H29C29.553 9.6665 30 10.1145 30 10.6665C30 11.2195 29.553 11.6665 29 11.6665H26V14.6665Z" fill="#9D9D9D"/>
<path fill-rule="evenodd" clip-rule="evenodd" d="M9.56814 24.9995H5.04199C4.48899 24.9995 4.04199 24.5525 4.04199 23.9995V12.5718V8.00051C4.04199 7.44751 4.48899 7.00051 5.04199 7.00051L9.59476 6.99997L9.61299 6.99981L9.63098 6.99997L13.516 6.99951C14.067 6.99951 14.516 7.44651 14.516 7.99951C14.516 8.55251 14.067 8.99951 13.516 8.99951L10.5231 8.99991C10.1095 11.2719 8.3133 13.0682 6.04199 13.4818V18.5184C8.31323 18.9317 10.1095 20.7273 10.5232 22.9995H21.536C22.089 22.9995 22.536 23.4465 22.536 23.9995C22.536 24.5525 22.089 24.9995 21.536 24.9995H9.65837C9.64343 25.0002 9.6284 25.0005 9.61329 25.0005C9.59816 25.0005 9.58311 25.0002 9.56814 24.9995ZM6.04199 9.00051V11.4292C7.20833 11.0883 8.12956 10.1667 8.47042 9.00019L6.04199 9.00051ZM8.47056 22.9995H6.04199V20.571C7.20797 20.9118 8.12948 21.8329 8.47056 22.9995ZM19.1567 19.5212C18.3787 20.1152 17.4497 20.4282 16.4697 20.4282C14.0287 20.4282 12.0417 18.4422 12.0417 16.0002C12.0417 14.1672 13.1427 12.5502 14.8467 11.8792C15.3597 11.6762 15.9417 11.9292 16.1437 12.4432C16.3457 12.9572 16.0937 13.5372 15.5787 13.7402C14.6447 14.1082 14.0417 14.9942 14.0417 16.0002C14.0417 17.3392 15.1307 18.4282 16.4697 18.4282C17.0077 18.4282 17.5157 18.2562 17.9417 17.9312C18.3797 17.5982 19.0077 17.6802 19.3437 18.1182C19.6787 18.5572 19.5947 19.1852 19.1567 19.5212Z" fill="#9D9D9D"/>
</svg>
