<svg width="18" height="17" viewBox="0 0 18 17" fill="none" xmlns="http://www.w3.org/2000/svg">
<path fill-rule="evenodd" clip-rule="evenodd" d="M14.0002 15.0003H12.0002V10.0002C12.0002 9.44825 11.5522 9.00025 11.0002 9.00025H7.00025C6.44825 9.00025 6.00025 9.44825 6.00025 10.0002V15.0003H4.00025V7.41425L9.00025 2.41425L14.0002 7.41425V15.0003ZM17.7073 8.29325L15.7083 6.29325L15.7072 6.29225L9.70725 0.29325C9.31625 -0.09775 8.68425 -0.09775 8.29325 0.29325L2.29325 6.29225L2.29225 6.29325L0.29325 8.29325C-0.09775 8.68425 -0.09775 9.31625 0.29325 9.70725C0.68425 10.0982 1.31625 10.0982 1.70725 9.70725L2.00025 9.41425V16.0002C2.00025 16.5522 2.44825 17.0002 3.00025 17.0002H7.00025C7.55225 17.0002 8.00025 16.5522 8.00025 16.0002V11.0002H10.0002V16.0002C10.0002 16.5522 10.4482 17.0002 11.0002 17.0002H15.0002C15.5522 17.0002 16.0002 16.5522 16.0002 16.0002V9.41425L16.2932 9.70725C16.4882 9.90225 16.7442 10.0002 17.0002 10.0002C17.2563 10.0002 17.5123 9.90225 17.7073 9.70725C18.0983 9.31625 18.0983 8.68425 17.7073 8.29325Z" fill="white"/>
</svg>
