<svg width="24" height="24" viewBox="0 0 24 24" fill="none" xmlns="http://www.w3.org/2000/svg">
<path fill-rule="evenodd" clip-rule="evenodd" d="M4.09668 20.0962H12.0967C12.6487 20.0962 13.0967 19.6482 13.0967 19.0962C13.0967 18.5442 12.6487 18.0962 12.0967 18.0962H5.09668V6.09619H12.0967C12.6487 6.09619 13.0967 5.64819 13.0967 5.09619C13.0967 4.54419 12.6487 4.09619 12.0967 4.09619H4.09668C3.54468 4.09619 3.09668 4.54419 3.09668 5.09619V19.0962C3.09668 19.6482 3.54468 20.0962 4.09668 20.0962ZM21.0195 11.7136C21.1205 11.9586 21.1205 12.2336 21.0195 12.4786C20.9685 12.6006 20.8955 12.7116 20.8035 12.8036L17.3065 16.3006C17.1105 16.4966 16.8545 16.5936 16.5995 16.5936C16.3435 16.5936 16.0875 16.4966 15.8925 16.3006C15.5015 15.9106 15.5015 15.2776 15.8925 14.8866L17.6825 13.0966H9.09648C8.54448 13.0966 8.09648 12.6486 8.09648 12.0966C8.09648 11.5436 8.54448 11.0966 9.09648 11.0966H17.6825L15.8925 9.30559C15.5015 8.91559 15.5015 8.28259 15.8925 7.89159C16.2825 7.50059 16.9155 7.50059 17.3065 7.89159L20.8035 11.3886C20.8955 11.4806 20.9685 11.5916 21.0195 11.7136Z" fill="white"/>
</svg>
