<svg width="52" height="52" viewBox="0 0 52 52" fill="none" xmlns="http://www.w3.org/2000/svg">
<path fill-rule="evenodd" clip-rule="evenodd" d="M4 26.0004C4 13.8704 13.87 4.00037 26 4.00037C38.13 4.00037 48 13.8704 48 26.0004C48 38.1304 38.13 48.0004 26 48.0004C13.87 48.0004 4 38.1304 4 26.0004ZM0 26.0004C0 40.3364 11.664 52.0004 26 52.0004C40.336 52.0004 52 40.3364 52 26.0004C52 11.6644 40.336 0.000366211 26 0.000366211C11.664 0.000366211 0 11.6644 0 26.0004ZM26.0058 17.3412C25.8816 17.3412 25.7731 17.3254 25.6524 17.3079L25.6058 17.3012C25.5458 17.2812 25.4808 17.2612 25.4158 17.2412C25.3508 17.2212 25.2858 17.2012 25.2258 17.1812C25.1658 17.1512 25.1108 17.1212 25.0559 17.0912L25.0558 17.0912L25.0557 17.0911C25.0007 17.0611 24.9458 17.0311 24.8858 17.0012L24.8858 17.0011C24.7858 16.9212 24.6858 16.8412 24.5858 16.7412C24.4858 16.6612 24.4058 16.5612 24.3458 16.4412C24.2746 16.3522 24.2209 16.2474 24.1662 16.1408L24.1458 16.1012C24.1058 15.9812 24.0658 15.8412 24.0478 15.7212C24.0058 15.6012 24.0058 15.4612 24.0058 15.3412C24.0058 15.2012 24.0058 15.0812 24.0478 14.9412C24.0658 14.8212 24.1058 14.6812 24.1458 14.5612C24.2078 14.4412 24.2658 14.3412 24.3458 14.2212C24.4058 14.1212 24.4858 14.0012 24.5858 13.9212C24.6858 13.8212 24.7858 13.7412 24.8858 13.6612L24.8858 13.6612C24.9458 13.6312 25.0008 13.6012 25.0558 13.5712L25.0559 13.5711C25.1108 13.5411 25.1658 13.5112 25.2258 13.4812C25.3458 13.4412 25.4858 13.4012 25.6058 13.3812C25.8658 13.3212 26.1278 13.3212 26.3858 13.3812C26.5258 13.4012 26.6458 13.4412 26.7658 13.4812L26.7658 13.4812C26.8858 13.5412 27.0058 13.6012 27.1058 13.6612C27.2258 13.7412 27.3258 13.8212 27.4058 13.9212C27.7858 14.2812 28.0058 14.8012 28.0058 15.3412C28.0058 15.8612 27.7858 16.3812 27.4058 16.7412C27.3258 16.8412 27.2258 16.9212 27.1058 17.0012C27.0058 17.0612 26.8858 17.1212 26.7658 17.1812L26.7657 17.1812C26.6457 17.2212 26.5257 17.2612 26.3858 17.3012C26.2658 17.3212 26.1278 17.3412 26.0058 17.3412ZM26 38.6664C24.894 38.6664 24 37.7704 24 36.6664V23.3324C24 22.2284 24.894 21.3324 26 21.3324C27.106 21.3324 28 22.2284 28 23.3324V36.6664C28 37.7704 27.106 38.6664 26 38.6664Z" fill="#2196F3"/>
</svg>
