<svg width="223" height="26" viewBox="0 0 223 26" fill="none" xmlns="http://www.w3.org/2000/svg">
<path d="M127.661 21.7217C126.032 21.7199 124.469 21.096 123.317 19.9868C122.164 18.8776 121.516 17.3737 121.514 15.8048V12.8854C121.52 12.687 121.485 12.4895 121.41 12.3045C121.336 12.1194 121.223 11.9507 121.08 11.8083C120.936 11.6658 120.764 11.5526 120.574 11.4752C120.385 11.3979 120.181 11.3581 119.974 11.3581C119.768 11.3581 119.564 11.3979 119.374 11.4752C119.185 11.5526 119.013 11.6658 118.869 11.8083C118.726 11.9507 118.613 12.1194 118.539 12.3045C118.464 12.4895 118.429 12.687 118.435 12.8854V15.8048C118.411 17.3587 117.752 18.8409 116.602 19.9314C115.452 21.0219 113.903 21.6331 112.288 21.6331C110.674 21.6331 109.125 21.0219 107.975 19.9314C106.824 18.8409 106.166 17.3587 106.141 15.8048V6.83713H110.742V15.8048C110.754 16.19 110.922 16.5555 111.209 16.8238C111.496 17.0921 111.881 17.2421 112.281 17.2421C112.682 17.2421 113.066 17.0921 113.353 16.8238C113.641 16.5555 113.808 16.19 113.82 15.8048V12.8854C113.845 11.3316 114.503 9.84935 115.653 8.75887C116.804 7.66839 118.353 7.05715 119.967 7.05715C121.582 7.05715 123.131 7.66839 124.281 8.75887C125.431 9.84935 126.09 11.3316 126.114 12.8854V15.8048C126.114 16.198 126.277 16.575 126.565 16.853C126.854 17.131 127.246 17.2871 127.654 17.2871C128.062 17.2871 128.454 17.131 128.743 16.853C129.032 16.575 129.194 16.198 129.194 15.8048V6.83713H133.8V15.8048C133.798 17.3724 133.151 18.8753 132.001 19.9843C130.85 21.0933 129.289 21.7181 127.661 21.7217ZM80.183 5.05097C79.4313 5.05097 78.8854 5.20609 78.5451 5.51633C78.2048 5.82657 78.0153 6.32842 77.9764 7.0219H80.6891V10.7448H77.9807V21.448H73.3884V10.7448H71.5884V7.01916H73.3884V6.86313C73.3884 5.07196 73.9296 3.68866 75.012 2.71324C76.0945 1.73781 77.666 1.25101 79.7266 1.25284C80.1531 1.25284 80.4787 1.26242 80.6934 1.27884V5.07972L80.183 5.05097ZM87.3003 2.31358V21.4425H82.7066V2.31084L87.3003 2.31358ZM100.821 7.72952C101.981 8.31351 102.941 9.20748 103.587 10.304C104.26 11.4245 104.596 12.7344 104.595 14.2336C104.594 15.7328 104.258 17.0426 103.587 18.1631C102.941 19.2592 101.981 20.1526 100.821 20.7363C99.5777 21.3234 98.2111 21.6287 96.8261 21.6287C95.4411 21.6287 94.0744 21.3234 92.8309 20.7363C91.665 20.1559 90.6993 19.262 90.0514 18.1631C89.3784 17.0435 89.0424 15.7337 89.0434 14.2336C89.0443 12.7335 89.3803 11.4236 90.0514 10.304C90.6979 9.20405 91.6626 8.30865 92.8281 7.72678C94.0719 7.14052 95.4384 6.83574 96.8232 6.83574C98.2081 6.83574 99.5746 7.14052 100.818 7.72678L100.821 7.72952ZM94.6167 11.5824C94.0167 12.1947 93.7167 13.0779 93.7167 14.2322C93.7167 15.3865 94.0167 16.267 94.6167 16.8738C94.8989 17.1662 95.2421 17.398 95.6238 17.5539C96.0056 17.7098 96.4172 17.7864 96.8318 17.7785C97.2446 17.7872 97.6546 17.711 98.0344 17.555C98.4142 17.399 98.755 17.1668 99.0341 16.8738C99.6255 16.2697 99.9212 15.3906 99.9212 14.2363C99.9212 13.082 99.6255 12.1988 99.0341 11.5865C98.757 11.2902 98.4169 11.0548 98.0368 10.8964C97.6568 10.7379 97.2458 10.66 96.8318 10.6681C96.4165 10.66 96.0042 10.7371 95.6222 10.8943C95.2403 11.0514 94.8975 11.2851 94.6167 11.5797V11.5824Z" fill="white"/>
<path d="M6.14769 6.9302C7.77709 6.93237 9.3391 7.55645 10.4913 8.66561C11.6434 9.77477 12.2917 11.2785 12.294 12.8471V15.7651C12.2877 15.9635 12.3229 16.1611 12.3974 16.3461C12.4719 16.5311 12.5843 16.6998 12.7278 16.8423C12.8713 16.9847 13.0431 17.098 13.233 17.1753C13.4228 17.2526 13.6269 17.2925 13.833 17.2925C14.0392 17.2925 14.2432 17.2526 14.433 17.1753C14.6229 17.098 14.7947 16.9847 14.9382 16.8423C15.0817 16.6998 15.1941 16.5311 15.2686 16.3461C15.3431 16.1611 15.3783 15.9635 15.3721 15.7651V12.8471C15.3966 11.2932 16.055 9.81102 17.2051 8.72054C18.3553 7.63007 19.9048 7.01883 21.519 7.01883C23.1333 7.01883 24.6828 7.63007 25.8329 8.72054C26.983 9.81102 27.6415 11.2932 27.666 12.8471V21.8148H23.0595V12.8471C23.0595 12.4539 22.8973 12.0769 22.6085 11.7989C22.3198 11.5209 21.9281 11.3648 21.5198 11.3648C21.1114 11.3648 20.7197 11.5209 20.431 11.7989C20.1422 12.0769 19.98 12.4539 19.98 12.8471V15.7651C19.9924 16.5498 19.8425 17.329 19.5392 18.0575C19.2358 18.7859 18.785 19.4489 18.213 20.008C17.641 20.5672 16.9592 21.0112 16.2072 21.3142C15.4553 21.6173 14.6482 21.7734 13.833 21.7734C13.0178 21.7734 12.2108 21.6173 11.4588 21.3142C10.7069 21.0112 10.025 20.5672 9.45301 20.008C8.88098 19.4489 8.43017 18.7859 8.12682 18.0575C7.82347 17.329 7.67363 16.5498 7.68603 15.7651V12.8471C7.69229 12.6487 7.65712 12.4512 7.58259 12.2661C7.50807 12.0811 7.39571 11.9124 7.25217 11.7699C7.10864 11.6275 6.93685 11.5143 6.74701 11.4369C6.55716 11.3596 6.35312 11.3197 6.14698 11.3197C5.94083 11.3197 5.73679 11.3596 5.54694 11.4369C5.3571 11.5143 5.18531 11.6275 5.04178 11.7699C4.89825 11.9124 4.78589 12.0811 4.71136 12.2661C4.63683 12.4512 4.60166 12.6487 4.60792 12.8471V21.8148H0V12.8471C0.00225761 11.2783 0.650729 9.77433 1.8032 8.66513C2.95566 7.55593 4.51804 6.93201 6.14769 6.9302Z" fill="white"/>
<path d="M41.0405 7.81985C42.2 8.40386 43.1601 9.29723 43.8058 10.393C44.4788 11.5135 44.8148 12.8234 44.8139 14.3225C44.8129 15.8217 44.4769 17.132 43.8058 18.2534C43.1605 19.3491 42.2003 20.2422 41.0405 20.8252C39.797 21.4124 38.4304 21.7177 37.0454 21.7177C35.6603 21.7177 34.2937 21.4124 33.0502 20.8252C31.8841 20.2458 30.9183 19.3522 30.2707 18.2534C29.5977 17.132 29.2617 15.8217 29.2627 14.3225C29.2636 12.8234 29.5996 11.5135 30.2707 10.393C30.9186 9.29414 31.8843 8.40019 33.0502 7.81985C34.294 7.23359 35.6605 6.92881 37.0454 6.92881C38.4302 6.92881 39.7967 7.23359 41.0405 7.81985ZM34.8359 11.6727C34.236 12.285 33.936 13.1683 33.936 14.3225C33.936 15.4768 34.236 16.356 34.8359 16.96C35.1182 17.2525 35.4614 17.4842 35.8431 17.6401C36.2248 17.796 36.6365 17.8726 37.0511 17.8647C37.4639 17.8735 37.8739 17.7973 38.2537 17.6412C38.6334 17.4852 38.9743 17.253 39.2534 16.96C39.8448 16.3569 40.1405 15.4777 40.1405 14.3225C40.1405 13.1674 39.8448 12.2841 39.2534 11.6727C38.9763 11.3764 38.6361 11.1411 38.2561 10.9826C37.8761 10.8241 37.4651 10.7463 37.0511 10.7543C36.6352 10.7471 36.2226 10.8252 35.8406 10.9836C35.4587 11.142 35.1162 11.3769 34.8359 11.6727Z" fill="white"/>
<path d="M60.4688 8.60959C61.4802 9.71276 61.9859 11.2293 61.9859 13.1591V21.5369H57.3936V13.6765C57.3936 12.7111 57.1291 11.957 56.6002 11.4141C56.0713 10.8711 55.3685 10.5997 54.4918 10.5997C53.5619 10.5997 52.8236 10.8839 52.2767 11.4524C51.7298 12.0208 51.4558 12.8311 51.4549 13.8832V21.5369H46.8626V7.1095H51.4549V9.74698C51.8723 8.89826 52.5411 8.1873 53.3771 7.70351C54.2302 7.20439 55.2287 6.95483 56.3728 6.95483C58.0912 6.95483 59.4566 7.50642 60.4688 8.60959Z" fill="white"/>
<path d="M65.3426 1.38286C65.8431 0.943965 66.5066 0.72406 67.3331 0.723147C68.1596 0.722235 68.8231 0.94214 69.3236 1.38286C69.5662 1.59194 69.7586 1.84936 69.8875 2.13724C70.0164 2.42512 70.0787 2.73656 70.07 3.04993C70.076 3.35985 70.0118 3.6673 69.8819 3.95093C69.752 4.23456 69.5596 4.48757 69.3179 4.69237C68.8165 5.13127 68.153 5.35072 67.3274 5.35072C66.5018 5.35072 65.8384 5.13127 65.3369 4.69237C65.095 4.48781 64.9023 4.23485 64.7724 3.95116C64.6425 3.66747 64.5785 3.3599 64.5848 3.04993C64.5772 2.73568 64.6411 2.42363 64.772 2.13565C64.903 1.84767 65.0977 1.59074 65.3426 1.38286ZM69.6079 7.10949V21.5369H65.0156V7.10949H69.6079Z" fill="white"/>
<path d="M136.651 19.6837C136.647 19.5072 136.68 19.3316 136.748 19.1675C136.815 19.0033 136.916 18.8538 137.045 18.7277C137.173 18.6016 137.327 18.5015 137.496 18.4332C137.665 18.3649 137.847 18.3299 138.03 18.3301C138.215 18.3294 138.398 18.3639 138.569 18.4317C138.74 18.4994 138.895 18.5991 139.026 18.7249C139.157 18.8508 139.26 19.0003 139.331 19.1649C139.401 19.3294 139.437 19.5058 139.436 19.6837C139.438 20.0456 139.292 20.3935 139.028 20.6516C138.765 20.9096 138.406 21.0567 138.03 21.0606C137.845 21.0582 137.663 21.0205 137.494 20.9498C137.324 20.8791 137.171 20.7768 137.043 20.6488C136.914 20.5208 136.814 20.3696 136.746 20.204C136.679 20.0383 136.647 19.8615 136.651 19.6837Z" fill="white"/>
<path d="M141.594 14.3472C141.594 10.4135 144.562 7.65835 148.648 7.65835C150.964 7.65835 152.913 8.53568 154.008 10.2589L152.629 11.1595C151.692 9.83184 150.234 9.20634 148.648 9.20634C145.662 9.20634 143.468 11.2594 143.468 14.3417C143.468 17.4486 145.655 19.4771 148.648 19.4771C150.234 19.4771 151.692 18.8762 152.629 17.5486L154.008 18.4505C152.914 20.1532 150.964 21.0511 148.648 21.0511C144.562 21.0606 141.594 18.2808 141.594 14.3472Z" fill="white"/>
<path d="M164.52 7.65835V9.38701C164.364 9.38701 164.208 9.36237 164.078 9.36237C161.215 9.36237 159.472 11.1157 159.472 14.2213V20.9361H157.623V7.75826H159.392V10.3383C160.252 8.58495 161.997 7.65835 164.52 7.65835Z" fill="white"/>
<path d="M179.951 7.75826L173.106 22.5142C171.962 25.0942 170.504 25.9209 168.557 25.9209C167.277 25.9209 166.059 25.5199 165.227 24.7178L166.08 23.3902C166.403 23.7123 166.792 23.9674 167.221 24.1397C167.651 24.312 168.113 24.3979 168.578 24.392C169.801 24.392 170.634 23.8446 171.422 22.1884L172.02 20.9101L165.907 7.75826H167.832L172.984 18.9569L178.134 7.75826H179.951Z" fill="white"/>
<path d="M196.423 14.3472C196.423 18.3547 193.509 21.0606 189.599 21.0606C187.413 21.0606 185.54 20.1587 184.395 18.4601V25.7991H182.547V7.75826H184.317V10.3588C185.436 8.60548 187.335 7.65287 189.599 7.65287C193.509 7.65834 196.423 10.3643 196.423 14.3472ZM194.575 14.3472C194.575 11.2909 192.363 9.21181 189.475 9.21181C186.56 9.21181 184.374 11.2909 184.374 14.3472C184.374 17.4281 186.56 19.4825 189.475 19.4825C192.363 19.4825 194.575 17.4281 194.575 14.3472Z" fill="white"/>
<path d="M207.403 20.134C206.675 20.7595 205.582 21.0606 204.514 21.0606C201.938 21.0606 200.508 19.6577 200.508 17.2283V9.26109H198.061V7.75552H200.508V4.88126H202.356V7.75552H206.52V9.26109H202.356V17.1284C202.356 18.6805 203.189 19.5332 204.725 19.5332C205.48 19.5332 206.233 19.3073 206.754 18.8557L207.403 20.134Z" fill="white"/>
<path d="M208.886 14.3472C208.886 10.4395 211.854 7.65835 215.853 7.65835C219.852 7.65835 222.801 10.4395 222.801 14.3472C222.801 18.2548 219.861 21.0606 215.853 21.0606C211.845 21.0606 208.886 18.2548 208.886 14.3472ZM220.934 14.3472C220.934 11.2662 218.775 9.21181 215.86 9.21181C212.945 9.21181 210.76 11.2649 210.76 14.3472C210.76 17.4295 212.945 19.4825 215.86 19.4825C218.775 19.4825 220.929 17.4281 220.929 14.3472H220.934Z" fill="white"/>
</svg>
