<svg width="32" height="32" viewBox="0 0 32 32" fill="none" xmlns="http://www.w3.org/2000/svg">
<path fill-rule="evenodd" clip-rule="evenodd" d="M27.0438 4.94475C27.0503 4.96691 27.0567 4.98902 27.0573 5.013L27.1283 10.406C27.1353 10.958 26.6943 11.412 26.1423 11.419H26.1283C25.5813 11.419 25.1363 10.98 25.1283 10.432L25.0883 7.421L20.1723 12.371C19.9763 12.568 19.7193 12.667 19.4623 12.667C19.2073 12.667 18.9533 12.57 18.7573 12.376C18.3663 11.987 18.3643 11.354 18.7523 10.962L23.6653 6.014L20.7543 6C20.2023 5.997 19.7563 5.548 19.7593 4.995C19.7633 4.443 20.1923 4.035 20.7643 4L26.0623 4.026C26.0905 4.02659 26.1159 4.03371 26.1416 4.04092C26.1596 4.04599 26.1779 4.05111 26.1973 4.054C26.2104 4.05578 26.2235 4.05742 26.2366 4.05907C26.3046 4.06761 26.3727 4.07617 26.4373 4.103C26.5593 4.153 26.6693 4.225 26.7613 4.316C26.7613 4.3165 26.7613 4.31675 26.7614 4.31687C26.7615 4.317 26.7618 4.317 26.7623 4.317C26.7661 4.32081 26.7684 4.32522 26.7707 4.32958C26.7727 4.33322 26.7746 4.33681 26.7773 4.34C26.8603 4.427 26.9303 4.526 26.9773 4.639C27.0067 4.70913 27.0167 4.78301 27.0266 4.85674C27.0282 4.86817 27.0297 4.87959 27.0313 4.891C27.0335 4.90958 27.0387 4.92718 27.0438 4.94475ZM19.201 19C20.416 19 21.402 19.97 21.402 21.167C21.402 22.363 20.416 23.334 19.201 23.334C17.985 23.334 17 22.363 17 21.167C17 19.97 17.985 19 19.201 19Z" fill="#2482FA"/>
<path fill-rule="evenodd" clip-rule="evenodd" d="M8.715 14.4166H13.333V11.7366L8.715 14.4166ZM6 26.3336H24V16.4166H6V26.3336ZM25 28.3336H5C4.447 28.3336 4 27.8856 4 27.3336V15.4166V15.4146V15.4126C4.001 15.1656 4.092 14.9386 4.241 14.7656C4.278 14.7236 4.317 14.6846 4.36 14.6486C4.407 14.6086 4.459 14.5726 4.515 14.5416L13.831 9.13563C14.14 8.95563 14.522 8.95463 14.832 9.13363C15.142 9.31263 15.333 9.64263 15.333 9.99963V14.4166H25C25.553 14.4166 26 14.8646 26 15.4166V27.3336C26 27.8856 25.553 28.3336 25 28.3336Z" fill="#0A0A0A"/>
</svg>
