<svg width="266" height="36" viewBox="0 0 266 36" fill="none" xmlns="http://www.w3.org/2000/svg">
<path d="M151.991 28.0005C150.051 27.9983 148.191 27.2555 146.819 25.9349C145.447 24.6143 144.675 22.8238 144.672 20.9559V17.4801C144.679 17.244 144.637 17.0088 144.549 16.7885C144.46 16.5682 144.326 16.3673 144.155 16.1977C143.984 16.0281 143.78 15.8933 143.554 15.8012C143.328 15.7091 143.085 15.6617 142.84 15.6617C142.594 15.6617 142.351 15.7091 142.125 15.8012C141.899 15.8933 141.695 16.0281 141.524 16.1977C141.353 16.3673 141.219 16.5682 141.13 16.7885C141.042 17.0088 141 17.244 141.007 17.4801V20.9559C140.978 22.8059 140.194 24.5706 138.825 25.8689C137.455 27.1672 135.611 27.895 133.689 27.895C131.767 27.895 129.922 27.1672 128.553 25.8689C127.183 24.5706 126.399 22.8059 126.37 20.9559V10.2791H131.848V20.9559C131.862 21.4145 132.062 21.8496 132.404 22.1691C132.746 22.4885 133.204 22.6671 133.68 22.6671C134.157 22.6671 134.615 22.4885 134.957 22.1691C135.299 21.8496 135.498 21.4145 135.513 20.9559V17.4801C135.542 15.6301 136.326 13.8654 137.695 12.5671C139.064 11.2688 140.909 10.5411 142.831 10.5411C144.753 10.5411 146.598 11.2688 147.967 12.5671C149.336 13.8654 150.12 15.6301 150.15 17.4801V20.9559C150.15 21.424 150.343 21.8729 150.686 22.2039C151.03 22.5348 151.497 22.7208 151.983 22.7208C152.469 22.7208 152.935 22.5348 153.279 22.2039C153.623 21.8729 153.816 21.424 153.816 20.9559V10.2791H159.3V20.9559C159.298 22.8222 158.528 24.6115 157.158 25.9319C155.788 27.2523 153.93 27.9962 151.991 28.0005ZM95.4645 8.15258C94.5696 8.15258 93.9196 8.33726 93.5145 8.70662C93.1093 9.07599 92.8836 9.67349 92.8374 10.4991H96.0671V14.9315H92.8424V27.6746H87.375V14.9315H85.232V10.4959H87.375V10.3101C87.375 8.17756 88.0193 6.53064 89.308 5.36931C90.5968 4.20799 92.4678 3.62841 94.9211 3.63058C95.4289 3.63058 95.8166 3.64199 96.0722 3.66154V8.1868L95.4645 8.15258ZM103.938 4.89348V27.6681H98.4691V4.89022L103.938 4.89348ZM120.036 11.3416C121.417 12.0369 122.56 13.1012 123.328 14.4068C124.13 15.7408 124.53 17.3003 124.529 19.0852C124.527 20.8701 124.127 22.4296 123.328 23.7637C122.56 25.0686 121.417 26.1324 120.036 26.8272C118.556 27.5263 116.928 27.8897 115.279 27.8897C113.631 27.8897 112.003 27.5263 110.523 26.8272C109.135 26.1363 107.985 25.0719 107.214 23.7637C106.412 22.4307 106.012 20.8712 106.014 19.0852C106.015 17.2992 106.415 15.7398 107.214 14.4068C107.983 13.0972 109.132 12.0311 110.52 11.3384C112 10.6404 113.627 10.2775 115.276 10.2775C116.925 10.2775 118.552 10.6404 120.033 11.3384L120.036 11.3416ZM112.649 15.9288C111.935 16.6577 111.577 17.7093 111.577 19.0836C111.577 20.4579 111.935 21.5062 112.649 22.2286C112.985 22.5768 113.394 22.8527 113.848 23.0384C114.303 23.224 114.793 23.3151 115.286 23.3058C115.778 23.3161 116.266 23.2254 116.718 23.0397C117.17 22.8539 117.576 22.5774 117.908 22.2286C118.612 21.5095 118.965 20.4627 118.965 19.0885C118.965 17.7142 118.612 16.6626 117.908 15.9337C117.578 15.5809 117.173 15.3007 116.721 15.112C116.269 14.9233 115.779 14.8306 115.286 14.8403C114.792 14.8306 114.301 14.9224 113.846 15.1095C113.391 15.2966 112.983 15.5748 112.649 15.9255V15.9288Z" fill="#0A0A0A"/>
<path d="M7.31933 10.39C9.25927 10.3925 11.119 11.1356 12.4907 12.4561C13.8625 13.7767 14.6343 15.567 14.637 17.4345V20.9087C14.6295 21.1449 14.6714 21.38 14.7601 21.6003C14.8489 21.8206 14.9826 22.0215 15.1535 22.1911C15.3244 22.3607 15.5289 22.4955 15.755 22.5876C15.981 22.6797 16.2239 22.7271 16.4693 22.7271C16.7148 22.7271 16.9577 22.6797 17.1837 22.5876C17.4098 22.4955 17.6143 22.3607 17.7852 22.1911C17.9561 22.0215 18.0898 21.8206 18.1786 21.6003C18.2673 21.38 18.3092 21.1449 18.3017 20.9087V17.4345C18.3309 15.5845 19.1149 13.8198 20.4842 12.5215C21.8535 11.2232 23.6983 10.4955 25.6202 10.4955C27.5421 10.4955 29.3869 11.2232 30.7562 12.5215C32.1255 13.8198 32.9095 15.5845 32.9387 17.4345V28.1113H27.4543V17.4345C27.4543 16.9664 27.2611 16.5176 26.9173 16.1866C26.5735 15.8556 26.1073 15.6697 25.621 15.6697C25.1348 15.6697 24.6686 15.8556 24.3248 16.1866C23.981 16.5176 23.7878 16.9664 23.7878 17.4345V20.9087C23.8026 21.8429 23.6242 22.7706 23.263 23.6379C22.9019 24.5051 22.3651 25.2945 21.6841 25.9602C21.003 26.6259 20.1913 27.1545 19.296 27.5154C18.4008 27.8762 17.4399 28.062 16.4693 28.062C15.4988 28.062 14.5379 27.8762 13.6427 27.5154C12.7474 27.1545 11.9356 26.6259 11.2546 25.9602C10.5735 25.2945 10.0368 24.5051 9.67566 23.6379C9.31449 22.7706 9.1361 21.8429 9.15086 20.9087V17.4345C9.15831 17.1983 9.11644 16.9631 9.02771 16.7428C8.93898 16.5226 8.8052 16.3217 8.63431 16.1521C8.46342 15.9825 8.2589 15.8477 8.03287 15.7556C7.80685 15.6635 7.56392 15.6161 7.31849 15.6161C7.07306 15.6161 6.83012 15.6635 6.6041 15.7556C6.37807 15.8477 6.17355 15.9825 6.00266 16.1521C5.83177 16.3217 5.698 16.5226 5.60927 16.7428C5.52054 16.9631 5.47866 17.1983 5.48611 17.4345V28.1113H0V17.4345C0.00268787 15.5667 0.774747 13.7761 2.14685 12.4555C3.51896 11.1349 5.37911 10.3921 7.31933 10.39Z" fill="#0A0A0A"/>
<path d="M48.8621 11.4492C50.2426 12.1445 51.3857 13.2081 52.1545 14.5127C52.9557 15.8468 53.3557 17.4062 53.3546 19.1911C53.3535 20.976 52.9534 22.5361 52.1545 23.8712C51.3862 25.1757 50.2429 26.2389 48.8621 26.9331C47.3816 27.6322 45.7546 27.9957 44.1056 27.9957C42.4566 27.9957 40.8295 27.6322 39.349 26.9331C37.9606 26.2433 36.8108 25.1794 36.0398 23.8712C35.2385 22.5361 34.8385 20.976 34.8396 19.1911C34.8407 17.4062 35.2408 15.8468 36.0398 14.5127C36.8112 13.2044 37.9609 12.1401 39.349 11.4492C40.8298 10.7512 42.4568 10.3883 44.1056 10.3883C45.7544 10.3883 47.3813 10.7512 48.8621 11.4492ZM41.4751 16.0363C40.7608 16.7653 40.4036 17.8169 40.4036 19.1911C40.4036 20.5654 40.7608 21.6121 41.4751 22.3313C41.8111 22.6795 42.2197 22.9554 42.6742 23.141C43.1287 23.3267 43.6188 23.4178 44.1124 23.4084C44.6038 23.4188 45.092 23.3281 45.5442 23.1423C45.9963 22.9566 46.4021 22.6801 46.7344 22.3313C47.4385 21.6132 47.7906 20.5665 47.7906 19.1911C47.7906 17.8158 47.4385 16.7642 46.7344 16.0363C46.4045 15.6836 45.9995 15.4033 45.5471 15.2147C45.0947 15.026 44.6053 14.9333 44.1124 14.9429C43.6173 14.9343 43.126 15.0273 42.6712 15.2159C42.2165 15.4044 41.8087 15.6841 41.4751 16.0363Z" fill="#0A0A0A"/>
<path d="M71.9932 12.3894C73.1973 13.7028 73.7993 15.5084 73.7993 17.806V27.7805H68.3318V18.422C68.3318 17.2726 68.017 16.3747 67.3873 15.7284C66.7576 15.082 65.9208 14.7588 64.877 14.7588C63.7699 14.7588 62.8909 15.0972 62.2397 15.774C61.5886 16.4508 61.2624 17.4155 61.2613 18.6681V27.7805H55.7938V10.6034H61.2613V13.7436C61.7583 12.7331 62.5545 11.8866 63.5499 11.3106C64.5655 10.7164 65.7544 10.4193 67.1164 10.4193C69.1624 10.4193 70.788 11.076 71.9932 12.3894Z" fill="#0A0A0A"/>
<path d="M77.7958 3.78539C78.3917 3.26284 79.1816 3.00103 80.1656 2.99994C81.1497 2.99886 81.9396 3.26067 82.5354 3.78539C82.8243 4.03431 83.0535 4.34079 83.2069 4.68353C83.3604 5.02628 83.4345 5.39708 83.4241 5.77018C83.4313 6.13915 83.3549 6.5052 83.2002 6.84289C83.0456 7.18058 82.8164 7.4818 82.5287 7.72564C81.9317 8.24818 81.1418 8.50945 80.1589 8.50945C79.176 8.50945 78.386 8.24818 77.7891 7.72564C77.5009 7.48208 77.2715 7.18091 77.1169 6.84316C76.9622 6.50541 76.886 6.13922 76.8936 5.77018C76.8846 5.39603 76.9607 5.0245 77.1165 4.68164C77.2724 4.33878 77.5042 4.03288 77.7958 3.78539ZM82.874 10.6034V27.7805H77.4065V10.6034H82.874Z" fill="#0A0A0A"/>
<path d="M162.694 25.5741C162.69 25.3639 162.729 25.1549 162.809 24.9594C162.89 24.764 163.01 24.586 163.163 24.4358C163.316 24.2857 163.499 24.1665 163.7 24.0852C163.902 24.0039 164.118 23.9622 164.336 23.9625C164.556 23.9616 164.774 24.0027 164.978 24.0834C165.181 24.1641 165.366 24.2828 165.522 24.4326C165.678 24.5824 165.801 24.7604 165.885 24.9563C165.969 25.1523 166.011 25.3622 166.01 25.5741C166.013 26.0049 165.839 26.4192 165.525 26.7264C165.211 27.0336 164.784 27.2087 164.336 27.2134C164.116 27.2105 163.899 27.1656 163.697 27.0814C163.496 26.9973 163.313 26.8755 163.161 26.7231C163.008 26.5707 162.888 26.3907 162.808 26.1935C162.728 25.9963 162.689 25.7858 162.694 25.5741Z" fill="#0A0A0A"/>
<path d="M168.58 19.2205C168.58 14.5371 172.113 11.2569 176.978 11.2569C179.735 11.2569 182.056 12.3014 183.359 14.353L181.717 15.4253C180.602 13.8446 178.867 13.0999 176.978 13.0999C173.423 13.0999 170.811 15.5442 170.811 19.214C170.811 22.913 173.414 25.328 176.978 25.328C178.867 25.328 180.602 24.6127 181.717 23.032L183.359 24.1059C182.057 26.133 179.735 27.202 176.978 27.202C172.113 27.2134 168.58 23.9038 168.58 19.2205Z" fill="#0A0A0A"/>
<path d="M195.875 11.2569V13.315C195.689 13.315 195.503 13.2857 195.349 13.2857C191.939 13.2857 189.864 15.3731 189.864 19.0706V27.0651H187.664V11.3758H189.769V14.4475C190.794 12.3601 192.87 11.2569 195.875 11.2569Z" fill="#0A0A0A"/>
<path d="M214.246 11.3758L206.097 28.944C204.735 32.0157 203 32.9999 200.681 32.9999C199.157 32.9999 197.707 32.5225 196.716 31.5676L197.732 29.9869C198.117 30.3705 198.579 30.6742 199.091 30.8793C199.602 31.0844 200.152 31.1867 200.706 31.1797C202.162 31.1797 203.154 30.5279 204.092 28.5562L204.804 27.0342L197.525 11.3758H199.817L205.952 24.7088L212.083 11.3758H214.246Z" fill="#0A0A0A"/>
<path d="M233.858 19.2205C233.858 23.9918 230.388 27.2134 225.733 27.2134C223.131 27.2134 220.9 26.1395 219.538 24.1173V32.8549H217.337V11.3758H219.445V14.472C220.777 12.3845 223.038 11.2504 225.733 11.2504C230.388 11.2569 233.858 14.4785 233.858 19.2205ZM231.658 19.2205C231.658 15.5817 229.024 13.1064 225.586 13.1064C222.116 13.1064 219.512 15.5817 219.512 19.2205C219.512 22.8886 222.116 25.3345 225.586 25.3345C229.024 25.3345 231.658 22.8886 231.658 19.2205Z" fill="#0A0A0A"/>
<path d="M246.931 26.1102C246.064 26.8549 244.763 27.2134 243.491 27.2134C240.424 27.2134 238.721 25.5431 238.721 22.6507V13.1651H235.808V11.3726H238.721V7.95052H240.922V11.3726H245.88V13.1651H240.922V22.5317C240.922 24.3796 241.914 25.3948 243.742 25.3948C244.641 25.3948 245.538 25.126 246.157 24.5882L246.931 26.1102Z" fill="#0A0A0A"/>
<path d="M248.696 19.2205C248.696 14.5681 252.229 11.2569 256.991 11.2569C261.752 11.2569 265.263 14.5681 265.263 19.2205C265.263 23.8728 261.763 27.2134 256.991 27.2134C252.219 27.2134 248.696 23.8728 248.696 19.2205ZM263.041 19.2205C263.041 15.5524 260.469 13.1064 256.999 13.1064C253.529 13.1064 250.927 15.5507 250.927 19.2205C250.927 22.8902 253.529 25.3345 256.999 25.3345C260.469 25.3345 263.034 22.8886 263.034 19.2205H263.041Z" fill="#0A0A0A"/>
</svg>
