<svg width="32" height="32" viewBox="0 0 32 32" fill="none" xmlns="http://www.w3.org/2000/svg">
<path fill-rule="evenodd" clip-rule="evenodd" d="M25.3659 4.29076C25.7579 3.90076 26.3889 3.90376 26.7809 4.29576C27.1699 4.68776 27.1679 5.32076 26.7759 5.70976L21.8239 10.6278L24.8369 10.6678C25.3879 10.6748 25.8299 11.1288 25.8229 11.6808C25.8149 12.2288 25.3689 12.6678 24.8229 12.6678H24.8089L19.4169 12.5958C19.3847 12.5952 19.3553 12.5867 19.326 12.5783C19.3062 12.5727 19.2865 12.567 19.2659 12.5638C19.2479 12.5606 19.2298 12.558 19.2117 12.5553C19.1546 12.5469 19.0978 12.5385 19.0439 12.5158C18.9279 12.4678 18.8249 12.3978 18.7369 12.3118C18.7344 12.3093 18.7314 12.3075 18.7284 12.3058C18.7254 12.304 18.7224 12.3023 18.7199 12.2998C18.7191 12.2985 18.7184 12.2973 18.7178 12.296C18.7168 12.2942 18.7157 12.2921 18.7139 12.2898C18.6269 12.1998 18.5549 12.0948 18.5079 11.9768C18.4722 11.8927 18.4625 11.804 18.4529 11.7151L18.4519 11.7058C18.4498 11.6908 18.4457 11.6765 18.4415 11.6622C18.4357 11.6422 18.4299 11.6224 18.4299 11.6008V11.5928V11.5918L18.4039 6.30276C18.4009 5.75076 18.8459 5.30076 19.3989 5.29776H19.4039C19.9539 5.29776 20.4009 5.74176 20.4039 6.29276L20.4179 9.20476L25.3659 4.29076ZM19.201 19C20.416 19 21.402 19.97 21.402 21.167C21.402 22.364 20.416 23.334 19.201 23.334C17.985 23.334 17 22.364 17 21.167C17 19.97 17.985 19 19.201 19Z" fill="#2482FA"/>
<path fill-rule="evenodd" clip-rule="evenodd" d="M8.715 14.4166H13.333V11.7366L8.715 14.4166ZM6 26.3336H24V16.4166H6V26.3336ZM25 28.3336H5C4.447 28.3336 4 27.8856 4 27.3336V15.4166V15.4146V15.4126C4.001 15.1656 4.092 14.9386 4.241 14.7656C4.278 14.7236 4.317 14.6846 4.36 14.6486C4.407 14.6086 4.459 14.5726 4.515 14.5416L13.831 9.13563C14.14 8.95563 14.522 8.95463 14.832 9.13363C15.142 9.31263 15.333 9.64263 15.333 9.99963V14.4166H25C25.553 14.4166 26 14.8646 26 15.4166V27.3336C26 27.8856 25.553 28.3336 25 28.3336Z" fill="#0A0A0A"/>
</svg>
