<svg width="26" height="24" viewBox="0 0 26 24" fill="none" xmlns="http://www.w3.org/2000/svg">
<path fill-rule="evenodd" clip-rule="evenodd" d="M24 11.9998H22V8.99982C22 8.44982 21.55 7.99982 21 7.99982H5C4.739 7.99982 4.479 8.10982 4.29 8.29982C4.109 8.47982 4 8.73982 4 8.99982V11.9998H2V1.99982H24V11.9998ZM20 16.6298C17.6 17.0498 15.71 18.9398 15.29 21.3398H10.71C10.29 18.9398 8.399 17.0498 6 16.6298V9.99982H20V16.6298ZM20 21.3398H17.35C17.7 20.0498 18.71 19.0398 20 18.6898V21.3398ZM6 21.3398V18.6898C7.29 19.0398 8.3 20.0498 8.649 21.3398H6ZM25 -0.000183105H1C0.45 -0.000183105 0 0.449817 0 0.999817V12.9998C0 13.5498 0.45 13.9998 1 13.9998H4V17.5298V17.5398V17.5498V22.3398C4 22.8898 4.45 23.3398 5 23.3398H21C21.55 23.3398 22 22.8898 22 22.3398V13.9998H25C25.55 13.9998 26 13.5498 26 12.9998V0.999817C26 0.449817 25.55 -0.000183105 25 -0.000183105Z" fill="#0A0A0A"/>
</svg>
