<svg width="24" height="24" viewBox="0 0 24 24" fill="none" xmlns="http://www.w3.org/2000/svg">
<path fill-rule="evenodd" clip-rule="evenodd" d="M12 20C7.589 20 4 16.411 4 12C4 7.589 7.589 4 12 4C16.411 4 20 7.589 20 12C20 16.411 16.411 20 12 20ZM12 2C6.486 2 2 6.486 2 12C2 17.514 6.486 22 12 22C17.514 22 22 17.514 22 12C22 6.486 17.514 2 12 2ZM12.1777 6.5C11.1977 6.5 10.4367 6.739 9.8497 7.231C9.3937 7.615 9.0737 8.279 9.0737 8.847C9.0737 9.36 9.4247 9.72 9.9267 9.72C10.3507 9.72 10.5717 9.492 10.7787 9.138C11.1037 8.509 11.4627 8.275 12.1067 8.275C12.8347 8.275 13.3437 8.691 13.3437 9.286C13.3437 9.807 13.0877 10.104 12.3687 10.677H12.3677C11.2737 11.552 10.9567 12.081 10.9567 13.039C10.9567 13.617 11.3387 14.005 11.9077 14.005C12.5617 14.005 12.7777 13.557 12.8987 13.141C13.0017 12.568 13.1517 12.364 13.8957 11.777C14.8757 11.019 15.4447 10.359 15.4447 9.236C15.4447 7.6 14.1317 6.5 12.1777 6.5ZM11.0078 15.9853C11.0078 15.4093 11.4588 14.9893 12.0078 14.9893C12.5558 14.9893 13.0078 15.4093 13.0078 15.9853C13.0078 16.5603 12.5558 16.9893 12.0078 16.9893C11.4588 16.9893 11.0078 16.5603 11.0078 15.9853Z" fill="white"/>
</svg>
