<svg width="24" height="24" viewBox="0 0 24 24" fill="none" xmlns="http://www.w3.org/2000/svg">
<path fill-rule="evenodd" clip-rule="evenodd" d="M12.0962 14.0962C10.9962 14.0962 10.0962 13.1962 10.0962 12.0962C10.0962 10.9962 10.9962 10.0962 12.0962 10.0962C13.1962 10.0962 14.0962 10.9962 14.0962 12.0962C14.0962 13.1962 13.1962 14.0962 12.0962 14.0962ZM12.0962 8.09621C9.88621 8.09621 8.09621 9.88621 8.09621 12.0962C8.09621 14.3062 9.88621 16.0962 12.0962 16.0962C14.3062 16.0962 16.0962 14.3062 16.0962 12.0962C16.0962 9.88621 14.3062 8.09621 12.0962 8.09621ZM17.5462 11.3662C17.5862 11.6762 17.5962 11.8862 17.5962 12.0962C17.5962 12.3062 17.5752 12.5262 17.5462 12.8262L17.4062 13.9562L18.2962 14.6562L19.3762 15.4962L18.6762 16.7062L17.4062 16.1962L16.3662 15.7762L15.4662 16.4562C15.0352 16.7762 14.6262 17.0162 14.2162 17.1862L13.1562 17.6162L12.9962 18.7462L12.7962 20.0962H11.3962L11.2062 18.7462L11.0462 17.6162L9.98621 17.1862C9.55621 17.0062 9.15621 16.7762 8.75621 16.4762L7.84621 15.7762L6.78521 16.2062L5.51621 16.7162L4.81621 15.5062L5.89621 14.6662L6.78521 13.9662L6.64621 12.8362C6.61621 12.5262 6.59621 12.2962 6.59621 12.0962C6.59621 11.8962 6.61621 11.6662 6.64621 11.3662L6.78521 10.2362L5.89621 9.53621L4.81621 8.69621L5.51621 7.48621L6.78521 7.99621L7.82521 8.41621L8.72621 7.73621C9.15621 7.41621 9.56621 7.17621 9.97621 7.00621L11.0352 6.57621L11.1962 5.44621L11.3962 4.09621H12.7852L12.9762 5.44621L13.1362 6.57621L14.1962 7.00621C14.6262 7.18621 15.0262 7.41621 15.4262 7.71621L16.3362 8.41621L17.3962 7.98621L18.6662 7.47621L19.3662 8.68621L18.2962 9.53621L17.4062 10.2362L17.5462 11.3662ZM19.5262 13.0762C19.5662 12.7562 19.5962 12.4362 19.5962 12.0962C19.5962 11.7562 19.5662 11.4362 19.5262 11.1162L21.6362 9.46621C21.8252 9.31621 21.8762 9.04621 21.7562 8.82621L19.7562 5.36621C19.6662 5.20621 19.4962 5.11621 19.3162 5.11621C19.2562 5.11621 19.1962 5.12621 19.1462 5.14621L16.6562 6.14621C16.1362 5.74621 15.5752 5.41621 14.9662 5.16621L14.5862 2.51621C14.5562 2.27621 14.3462 2.09621 14.0962 2.09621H10.0962C9.84621 2.09621 9.63621 2.27621 9.60621 2.51621L9.22621 5.16621C8.61621 5.41621 8.05621 5.75621 7.53521 6.14621L5.04621 5.14621C4.98621 5.12621 4.92621 5.11621 4.86621 5.11621C4.69621 5.11621 4.52621 5.20621 4.43621 5.36621L2.43621 8.82621C2.30621 9.04621 2.36621 9.31621 2.55621 9.46621L4.66621 11.1162C4.62621 11.4362 4.59621 11.7662 4.59621 12.0962C4.59621 12.4262 4.62621 12.7562 4.66621 13.0762L2.55621 14.7262C2.36621 14.8762 2.31621 15.1462 2.43621 15.3662L4.43621 18.8262C4.52621 18.9862 4.69621 19.0762 4.87621 19.0762C4.93621 19.0762 4.99621 19.0662 5.04621 19.0462L7.53521 18.0462C8.05621 18.4462 8.61621 18.7762 9.22621 19.0262L9.60621 21.6762C9.63621 21.9162 9.84621 22.0962 10.0962 22.0962H14.0962C14.3462 22.0962 14.5562 21.9162 14.5862 21.6762L14.9662 19.0262C15.5752 18.7762 16.1362 18.4362 16.6562 18.0462L19.1462 19.0462C19.2062 19.0662 19.2662 19.0762 19.3252 19.0762C19.4962 19.0762 19.6662 18.9862 19.7562 18.8262L21.7562 15.3662C21.8762 15.1462 21.8252 14.8762 21.6362 14.7262L19.5262 13.0762Z" fill="white"/>
</svg>
