<svg width="24" height="24" viewBox="0 0 24 24" fill="none" xmlns="http://www.w3.org/2000/svg">
<path fill-rule="evenodd" clip-rule="evenodd" d="M11.1736 6.08375C11.4906 6.41475 11.2666 6.97975 10.8186 6.97975H9.01664H9.00664C9.00664 6.98325 9.00764 6.98675 9.00864 6.99025C9.00964 6.99375 9.01064 6.99725 9.01064 7.00075V13.0007C9.01064 13.5527 8.56364 14.0007 8.01064 14.0007C7.45864 14.0007 7.01064 13.5527 7.01064 13.0007V7.00075C7.01064 6.99725 7.01164 6.99375 7.01264 6.99025C7.01364 6.98675 7.01464 6.98325 7.01464 6.97975H7.00564H5.20364C4.75664 6.97975 4.53164 6.41475 4.84764 6.08375L7.65564 3.15375C7.85164 2.94875 8.17064 2.94875 8.36664 3.15375L11.1736 6.08375ZM17.0163 17.021H18.8183C19.2663 17.021 19.4903 17.586 19.1733 17.917L16.3673 20.847C16.1703 21.052 15.8513 21.052 15.6563 20.847L12.8483 17.917C12.5313 17.586 12.7563 17.021 13.2043 17.021H15.0053H15.0153C15.0153 17.0175 15.0143 17.014 15.0133 17.0105C15.0123 17.007 15.0113 17.0035 15.0113 17V11C15.0113 10.448 15.4593 10 16.0113 10C16.5643 10 17.0113 10.448 17.0113 11V17C17.0113 17.0035 17.0103 17.007 17.0093 17.0105C17.0083 17.014 17.0073 17.0175 17.0073 17.021H17.0163Z" fill="white"/>
</svg>
