<svg width="32" height="32" viewBox="0 0 32 32" fill="none" xmlns="http://www.w3.org/2000/svg">
<path fill-rule="evenodd" clip-rule="evenodd" d="M19.6598 16.4998C19.6598 18.5198 18.0198 20.1698 16.0008 20.1698C13.9798 20.1698 12.3408 18.5198 12.3408 16.4998C12.3408 15.9598 12.4608 15.4598 12.6708 14.9998H15.3098C14.7398 15.2598 14.3408 15.8398 14.3408 16.4998C14.3408 17.4198 15.0908 18.1698 16.0008 18.1698C16.9208 18.1698 17.6598 17.4198 17.6598 16.4998C17.6598 15.8398 17.2698 15.2598 16.7008 14.9998H19.3308C19.5408 15.4598 19.6598 15.9598 19.6598 16.4998Z" fill="#2482FA"/>
<path fill-rule="evenodd" clip-rule="evenodd" d="M27 16.9998H25V13.9998C25 13.4498 24.55 12.9998 24 12.9998H8C7.739 12.9998 7.479 13.1098 7.29 13.2998C7.109 13.4798 7 13.7398 7 13.9998V16.9998H5V6.99982H27V16.9998ZM23 21.6298C20.6 22.0498 18.71 23.9398 18.29 26.3398H13.71C13.29 23.9398 11.399 22.0498 9 21.6298V14.9998H23V21.6298ZM23 26.3398H20.35C20.7 25.0498 21.71 24.0398 23 23.6898V26.3398ZM9 26.3398V23.6898C10.29 24.0398 11.3 25.0498 11.649 26.3398H9ZM28 4.99982H4C3.45 4.99982 3 5.44982 3 5.99982V17.9998C3 18.5498 3.45 18.9998 4 18.9998H7V22.5298V22.5398V22.5498V27.3398C7 27.8898 7.45 28.3398 8 28.3398H24C24.55 28.3398 25 27.8898 25 27.3398V18.9998H28C28.55 18.9998 29 18.5498 29 17.9998V5.99982C29 5.44982 28.55 4.99982 28 4.99982Z" fill="#0A0A0A"/>
</svg>
